<svg width="246" height="42" viewBox="0 0 246 42" fill="none" xmlns="http://www.w3.org/2000/svg">
<path d="M17.6836 22.541H7.55859V33H2.28516V7.40625H18.9492V11.6777H7.55859V18.2871H17.6836V22.541ZM33.082 27.7266H23.8359L22.0781 33H16.4707L25.998 7.40625H30.8848L40.4648 33H34.8574L33.082 27.7266ZM25.2598 23.4551H31.6582L28.4414 13.875L25.2598 23.4551ZM56.127 26.2852C56.127 25.2891 55.7754 24.5273 55.0723 24C54.3691 23.4609 53.1035 22.8984 51.2754 22.3125C49.4473 21.7148 48 21.1289 46.9336 20.5547C44.0273 18.9844 42.5742 16.8691 42.5742 14.209C42.5742 12.8262 42.9609 11.5957 43.7344 10.5176C44.5195 9.42773 45.6387 8.57813 47.0918 7.96875C48.5566 7.35937 50.1973 7.05469 52.0137 7.05469C53.8418 7.05469 55.4707 7.38867 56.9004 8.05664C58.3301 8.71289 59.4375 9.64453 60.2227 10.8516C61.0195 12.0586 61.418 13.4297 61.418 14.9648H56.1445C56.1445 13.793 55.7754 12.8848 55.0371 12.2402C54.2988 11.584 53.2617 11.2559 51.9258 11.2559C50.6367 11.2559 49.6348 11.5313 48.9199 12.082C48.2051 12.6211 47.8477 13.3359 47.8477 14.2266C47.8477 15.0586 48.2637 15.7559 49.0957 16.3184C49.9395 16.8809 51.1758 17.4082 52.8047 17.9004C55.8047 18.8027 57.9902 19.9219 59.3613 21.2578C60.7324 22.5938 61.418 24.2578 61.418 26.25C61.418 28.4648 60.5801 30.2051 58.9043 31.4707C57.2285 32.7246 54.9727 33.3516 52.1367 33.3516C50.168 33.3516 48.375 32.9941 46.7578 32.2793C45.1406 31.5527 43.9043 30.5625 43.0488 29.3086C42.2051 28.0547 41.7832 26.6016 41.7832 24.9492H47.0742C47.0742 27.7734 48.7617 29.1855 52.1367 29.1855C53.3906 29.1855 54.3691 28.9336 55.0723 28.4297C55.7754 27.9141 56.127 27.1992 56.127 26.2852ZM85.834 33H80.5605V22.0312H70.2773V33H65.0039V7.40625H70.2773V17.7773H80.5605V7.40625H85.834V33ZM96.0645 33H90.791V7.40625H96.0645V33ZM121.992 20.7832C121.992 23.3027 121.547 25.5117 120.656 27.4102C119.766 29.3086 118.488 30.7734 116.824 31.8047C115.172 32.8359 113.273 33.3516 111.129 33.3516C109.008 33.3516 107.115 32.8418 105.451 31.8223C103.787 30.8027 102.498 29.3496 101.584 27.4629C100.67 25.5645 100.207 23.3848 100.195 20.9238V19.6582C100.195 17.1387 100.646 14.9238 101.549 13.0137C102.463 11.0918 103.746 9.62109 105.398 8.60156C107.062 7.57031 108.961 7.05469 111.094 7.05469C113.227 7.05469 115.119 7.57031 116.771 8.60156C118.436 9.62109 119.719 11.0918 120.621 13.0137C121.535 14.9238 121.992 17.1328 121.992 19.6406V20.7832ZM116.648 19.623C116.648 16.9395 116.168 14.9004 115.207 13.5059C114.246 12.1113 112.875 11.4141 111.094 11.4141C109.324 11.4141 107.959 12.1055 106.998 13.4883C106.037 14.8594 105.551 16.875 105.539 19.5352V20.7832C105.539 23.3965 106.02 25.4238 106.98 26.8652C107.941 28.3066 109.324 29.0273 111.129 29.0273C112.898 29.0273 114.258 28.3359 115.207 26.9531C116.156 25.5586 116.637 23.5312 116.648 20.8711V19.623ZM146.637 33H141.363L131.098 16.1602V33H125.824V7.40625H131.098L141.381 24.2812V7.40625H146.637V33ZM156.85 33H151.576V7.40625H156.85V33ZM175.025 26.2852C175.025 25.2891 174.674 24.5273 173.971 24C173.268 23.4609 172.002 22.8984 170.174 22.3125C168.346 21.7148 166.898 21.1289 165.832 20.5547C162.926 18.9844 161.473 16.8691 161.473 14.209C161.473 12.8262 161.859 11.5957 162.633 10.5176C163.418 9.42773 164.537 8.57813 165.99 7.96875C167.455 7.35937 169.096 7.05469 170.912 7.05469C172.74 7.05469 174.369 7.38867 175.799 8.05664C177.229 8.71289 178.336 9.64453 179.121 10.8516C179.918 12.0586 180.316 13.4297 180.316 14.9648H175.043C175.043 13.793 174.674 12.8848 173.936 12.2402C173.197 11.584 172.16 11.2559 170.824 11.2559C169.535 11.2559 168.533 11.5313 167.818 12.082C167.104 12.6211 166.746 13.3359 166.746 14.2266C166.746 15.0586 167.162 15.7559 167.994 16.3184C168.838 16.8809 170.074 17.4082 171.703 17.9004C174.703 18.8027 176.889 19.9219 178.26 21.2578C179.631 22.5938 180.316 24.2578 180.316 26.25C180.316 28.4648 179.479 30.2051 177.803 31.4707C176.127 32.7246 173.871 33.3516 171.035 33.3516C169.066 33.3516 167.273 32.9941 165.656 32.2793C164.039 31.5527 162.803 30.5625 161.947 29.3086C161.104 28.0547 160.682 26.6016 160.682 24.9492H165.973C165.973 27.7734 167.66 29.1855 171.035 29.1855C172.289 29.1855 173.268 28.9336 173.971 28.4297C174.674 27.9141 175.025 27.1992 175.025 26.2852ZM203.168 11.6777H195.328V33H190.055V11.6777H182.32V7.40625H203.168V11.6777ZM218.531 27.7266H209.285L207.527 33H201.92L211.447 7.40625H216.334L225.914 33H220.307L218.531 27.7266ZM210.709 23.4551H217.107L213.891 13.875L210.709 23.4551Z" fill="#212429"/>
<circle cx="238.5" cy="25.5" r="7.5" fill="#BA9EB7"/>
</svg>
