<svg width="183" height="42" viewBox="0 0 183 42" fill="none" xmlns="http://www.w3.org/2000/svg">
<path d="M16.7344 27.7266H7.48828L5.73047 33H0.123047L9.65039 7.40625H14.5371L24.1172 33H18.5098L16.7344 27.7266ZM8.91211 23.4551H15.3105L12.0938 13.875L8.91211 23.4551ZM42.0384 7.40625L48.6127 25.9688L55.1517 7.40625H62.0775V33H56.7865V26.0039L57.3138 13.9277L50.4056 33H46.7845L39.8939 13.9453L40.4212 26.0039V33H35.1478V7.40625H42.0384ZM96.3464 20.7832C96.3464 23.3027 95.9011 25.5117 95.0105 27.4102C94.1198 29.3086 92.8425 30.7734 91.1784 31.8047C89.5261 32.8359 87.6277 33.3516 85.4831 33.3516C83.362 33.3516 81.4695 32.8418 79.8054 31.8223C78.1413 30.8027 76.8523 29.3496 75.9382 27.4629C75.0241 25.5645 74.5612 23.3848 74.5495 20.9238V19.6582C74.5495 17.1387 75.0007 14.9238 75.903 13.0137C76.8171 11.0918 78.1003 9.62109 79.7527 8.60156C81.4167 7.57031 83.3152 7.05469 85.448 7.05469C87.5808 7.05469 89.4734 7.57031 91.1257 8.60156C92.7898 9.62109 94.073 11.0918 94.9753 13.0137C95.8894 14.9238 96.3464 17.1328 96.3464 19.6406V20.7832ZM91.0027 19.623C91.0027 16.9395 90.5222 14.9004 89.5612 13.5059C88.6003 12.1113 87.2292 11.4141 85.448 11.4141C83.6784 11.4141 82.3132 12.1055 81.3523 13.4883C80.3913 14.8594 79.905 16.875 79.8933 19.5352V20.7832C79.8933 23.3965 80.3737 25.4238 81.3347 26.8652C82.2956 28.3066 83.6784 29.0273 85.4831 29.0273C87.2527 29.0273 88.612 28.3359 89.5612 26.9531C90.5105 25.5586 90.9909 23.5312 91.0027 20.8711V19.623ZM118.293 23.6309H114.092V33H108.818V7.40625H118.328C121.352 7.40625 123.684 8.08008 125.324 9.42773C126.965 10.7754 127.785 12.6797 127.785 15.1406C127.785 16.8867 127.404 18.3457 126.643 19.5176C125.893 20.6777 124.75 21.6035 123.215 22.2949L128.752 32.7539V33H123.092L118.293 23.6309ZM114.092 19.3594H118.346C119.67 19.3594 120.695 19.0254 121.422 18.3574C122.149 17.6777 122.512 16.7461 122.512 15.5625C122.512 14.3555 122.166 13.4062 121.475 12.7148C120.795 12.0234 119.746 11.6777 118.328 11.6777H114.092V19.3594ZM154.9 27.7266H145.654L143.896 33H138.289L147.816 7.40625H152.703L162.283 33H156.675L154.9 27.7266ZM147.078 23.4551H153.476L150.259 13.875L147.078 23.4551Z" fill="#212429"/>
<circle cx="175.5" cy="25.5" r="7.5" fill="#BA9EB7"/>
</svg>
